<mxfile host="Electron" modified="2023-10-13T01:10:05.053Z" agent="Mozilla/5.0 (Windows NT 10.0; Win64; x64) AppleWebKit/537.36 (KHTML, like Gecko) draw.io/22.0.2 Chrome/114.0.5735.289 Electron/25.8.4 Safari/537.36" etag="JQnp-D-KkUMpAwctJKyQ" version="22.0.2" type="device">
  <diagram name="Página-1" id="dKtWywW3ErUEVNFxRKwS">
    <mxGraphModel dx="432" dy="254" grid="1" gridSize="10" guides="1" tooltips="1" connect="1" arrows="1" fold="1" page="1" pageScale="1" pageWidth="827" pageHeight="1169" math="0" shadow="0">
      <root>
        <mxCell id="0" />
        <mxCell id="1" parent="0" />
        <mxCell id="sRQ37mZmU0mtzM3wKKMn-2" value="" style="endArrow=classic;html=1;rounded=0;" parent="1" source="sRQ37mZmU0mtzM3wKKMn-1" edge="1">
          <mxGeometry width="50" height="50" relative="1" as="geometry">
            <mxPoint x="417.5" y="60" as="sourcePoint" />
            <mxPoint x="417.5" y="130" as="targetPoint" />
          </mxGeometry>
        </mxCell>
        <mxCell id="sRQ37mZmU0mtzM3wKKMn-3" value="" style="endArrow=classic;html=1;rounded=0;" parent="1" target="sRQ37mZmU0mtzM3wKKMn-1" edge="1">
          <mxGeometry width="50" height="50" relative="1" as="geometry">
            <mxPoint x="417.5" y="60" as="sourcePoint" />
            <mxPoint x="417.5" y="130" as="targetPoint" />
          </mxGeometry>
        </mxCell>
        <mxCell id="sRQ37mZmU0mtzM3wKKMn-1" value="iniciio" style="ellipse;whiteSpace=wrap;html=1;" parent="1" vertex="1">
          <mxGeometry x="330" y="10" width="196" height="130" as="geometry" />
        </mxCell>
        <mxCell id="sRQ37mZmU0mtzM3wKKMn-4" value="" style="endArrow=classic;html=1;rounded=0;entryX=0.502;entryY=-0.045;entryDx=0;entryDy=0;entryPerimeter=0;" parent="1" target="sRQ37mZmU0mtzM3wKKMn-8" edge="1">
          <mxGeometry width="50" height="50" relative="1" as="geometry">
            <mxPoint x="427.5" y="140" as="sourcePoint" />
            <mxPoint x="430" y="200" as="targetPoint" />
          </mxGeometry>
        </mxCell>
        <mxCell id="sRQ37mZmU0mtzM3wKKMn-5" value="&quot;Carrera:Tecnico Informatico&amp;nbsp; en Bachiller&quot;" style="rounded=0;whiteSpace=wrap;html=1;" parent="1" vertex="1">
          <mxGeometry x="368" y="510" width="120" height="60" as="geometry" />
        </mxCell>
        <mxCell id="sRQ37mZmU0mtzM3wKKMn-6" value="&quot;Grupo:305&quot;" style="rounded=0;whiteSpace=wrap;html=1;" parent="1" vertex="1">
          <mxGeometry x="368" y="410" width="120" height="60" as="geometry" />
        </mxCell>
        <mxCell id="sRQ37mZmU0mtzM3wKKMn-7" value="&lt;font style=&quot;font-size: 8px;&quot;&gt;&quot;MODULO:PROGRAMACION BASICA&quot;&lt;br&gt;&lt;/font&gt;" style="rounded=0;whiteSpace=wrap;html=1;" parent="1" vertex="1">
          <mxGeometry x="368" y="310" width="120" height="60" as="geometry" />
        </mxCell>
        <mxCell id="sRQ37mZmU0mtzM3wKKMn-8" value="&quot;PORTADA&quot;" style="rounded=0;whiteSpace=wrap;html=1;" parent="1" vertex="1">
          <mxGeometry x="368" y="210" width="120" height="60" as="geometry" />
        </mxCell>
        <mxCell id="sRQ37mZmU0mtzM3wKKMn-9" value="" style="endArrow=classic;html=1;rounded=0;entryX=0.506;entryY=-0.015;entryDx=0;entryDy=0;entryPerimeter=0;" parent="1" target="sRQ37mZmU0mtzM3wKKMn-7" edge="1">
          <mxGeometry width="50" height="50" relative="1" as="geometry">
            <mxPoint x="429.25" y="270" as="sourcePoint" />
            <mxPoint x="426.75" y="310" as="targetPoint" />
          </mxGeometry>
        </mxCell>
        <mxCell id="sRQ37mZmU0mtzM3wKKMn-10" value="" style="endArrow=classic;html=1;rounded=0;entryX=0.506;entryY=-0.015;entryDx=0;entryDy=0;entryPerimeter=0;" parent="1" edge="1">
          <mxGeometry width="50" height="50" relative="1" as="geometry">
            <mxPoint x="428.13" y="371" as="sourcePoint" />
            <mxPoint x="427.88" y="410" as="targetPoint" />
          </mxGeometry>
        </mxCell>
        <mxCell id="sRQ37mZmU0mtzM3wKKMn-11" value="" style="endArrow=classic;html=1;rounded=0;entryX=0.506;entryY=-0.015;entryDx=0;entryDy=0;entryPerimeter=0;" parent="1" edge="1">
          <mxGeometry width="50" height="50" relative="1" as="geometry">
            <mxPoint x="427.97" y="570" as="sourcePoint" />
            <mxPoint x="427.72" y="609" as="targetPoint" />
          </mxGeometry>
        </mxCell>
        <mxCell id="sRQ37mZmU0mtzM3wKKMn-12" value="" style="endArrow=classic;html=1;rounded=0;entryX=0.506;entryY=-0.015;entryDx=0;entryDy=0;entryPerimeter=0;" parent="1" edge="1">
          <mxGeometry width="50" height="50" relative="1" as="geometry">
            <mxPoint x="428.13" y="471" as="sourcePoint" />
            <mxPoint x="427.88" y="510" as="targetPoint" />
          </mxGeometry>
        </mxCell>
        <mxCell id="sRQ37mZmU0mtzM3wKKMn-13" value="&quot;Nombre:Maria del carmen Sambrano Castañeda&quot;" style="rounded=0;whiteSpace=wrap;html=1;" parent="1" vertex="1">
          <mxGeometry x="368" y="610" width="120" height="60" as="geometry" />
        </mxCell>
        <mxCell id="sRQ37mZmU0mtzM3wKKMn-14" value="&lt;font style=&quot;font-size: 8px;&quot;&gt;&quot;correo:msambrano2822@conalepmex.edu.mx&quot;&lt;/font&gt;" style="rounded=0;whiteSpace=wrap;html=1;" parent="1" vertex="1">
          <mxGeometry x="350" y="710" width="180" height="60" as="geometry" />
        </mxCell>
        <mxCell id="sRQ37mZmU0mtzM3wKKMn-15" value="" style="endArrow=classic;html=1;rounded=0;entryX=0.506;entryY=-0.015;entryDx=0;entryDy=0;entryPerimeter=0;" parent="1" edge="1">
          <mxGeometry width="50" height="50" relative="1" as="geometry">
            <mxPoint x="437.97" y="580" as="sourcePoint" />
            <mxPoint x="437.72" y="619" as="targetPoint" />
          </mxGeometry>
        </mxCell>
        <mxCell id="sRQ37mZmU0mtzM3wKKMn-16" value="" style="endArrow=classic;html=1;rounded=0;entryX=0.506;entryY=-0.015;entryDx=0;entryDy=0;entryPerimeter=0;" parent="1" edge="1">
          <mxGeometry width="50" height="50" relative="1" as="geometry">
            <mxPoint x="427.97" y="671" as="sourcePoint" />
            <mxPoint x="427.72" y="710" as="targetPoint" />
          </mxGeometry>
        </mxCell>
        <mxCell id="sRQ37mZmU0mtzM3wKKMn-17" value="" style="endArrow=classic;html=1;rounded=0;entryX=0.506;entryY=-0.015;entryDx=0;entryDy=0;entryPerimeter=0;" parent="1" target="sRQ37mZmU0mtzM3wKKMn-18" edge="1">
          <mxGeometry width="50" height="50" relative="1" as="geometry">
            <mxPoint x="428.02000000000004" y="770" as="sourcePoint" />
            <mxPoint x="427.77000000000004" y="809" as="targetPoint" />
          </mxGeometry>
        </mxCell>
        <mxCell id="sRQ37mZmU0mtzM3wKKMn-18" value="fin" style="ellipse;whiteSpace=wrap;html=1;" parent="1" vertex="1">
          <mxGeometry x="368" y="810" width="120" height="80" as="geometry" />
        </mxCell>
      </root>
    </mxGraphModel>
  </diagram>
</mxfile>
